<svg width="512" height="328" viewBox="0 0 512 328" fill="none" xmlns="http://www.w3.org/2000/svg">
<path d="M400 8H32C14.3 8 0 22.3 0 40V232C0 285 43 328 96 328H288C341 328 384 285 384 232H400C461.8 232 512 181.8 512 120C512 58.2 461.8 8 400 8ZM400 168H384V72H400C426.5 72 448 93.5 448 120C448 146.5 426.5 168 400 168Z" fill="#FBF2E7"/>
<path d="M305.696 36.2409L267 28.3136L284.604 8H243L245.5 28.3136L249 63.4909L252.5 89.2545L255 60.0227L260.922 48.0827L300.5 63.4909L321.5 89.2545L362 117L326.68 86.3127L305.696 36.2409Z" fill="#442F37"/>
<path d="M128 145C128 157.15 118.15 167 106 167C93.8497 167 84 157.15 84 145C84 132.85 93.8497 123 106 123C118.15 123 128 132.85 128 145Z" fill="black"/>
<path d="M243 145C243 157.15 233.15 167 221 167C208.85 167 199 157.15 199 145C199 132.85 208.85 123 221 123C233.15 123 243 132.85 243 145Z" fill="black"/>
<path d="M196.5 207.5C181 204 168.293 206.286 156.755 209.134C145.216 211.983 128.072 222.816 124.823 241.717C123.816 247.575 124.638 255.774 143.761 246.524C162.885 237.275 183.922 234.552 204.816 242.77C225.71 250.988 240.181 253.294 233.418 235.203C226.656 217.113 212 211 196.5 207.5Z" fill="#5B3240"/>
<path d="M223 242.5C216.5 233.5 212 232.5 200 230C188 227.5 175 231.5 170 238.5C187 237.5 187 238 204.816 242.77C223 249.5 229.5 251.5 223 242.5Z" fill="#E7206C"/>
</svg>
