<?xml version="1.0" standalone="no"?>
<!DOCTYPE svg PUBLIC "-//W3C//DTD SVG 20010904//EN"
 "http://www.w3.org/TR/2001/REC-SVG-20010904/DTD/svg10.dtd">
<svg version="1.0" xmlns="http://www.w3.org/2000/svg"
 width="692.000000pt" height="692.000000pt" viewBox="0 0 692.000000 692.000000"
 preserveAspectRatio="xMidYMid meet">
<metadata>
Created by potrace 1.11, written by Peter Selinger 2001-2013
</metadata>
<g transform="translate(0.000000,692.000000) scale(0.100000,-0.100000)"
fill="#000000" stroke="none">
<path d="M1030 5723 c-136 -46 -211 -148 -214 -293 l-2 -75 -257 -2 c-212 -1
-266 -4 -308 -18 -59 -20 -136 -89 -165 -150 -18 -39 -19 -87 -19 -1750 l0
-1710 27 -73 c39 -108 84 -177 168 -263 59 -59 95 -85 160 -118 171 -83 -105
-77 3100 -75 2656 1 2849 2 2909 18 210 56 346 192 419 421 12 37 13 3846 1
3890 -17 61 -78 136 -140 170 l-54 30 -2805 2 c-1543 1 -2812 -1 -2820 -4z
m4995 -765 c77 -41 81 -61 80 -368 -1 -295 -4 -309 -68 -349 l-34 -21 -2165 0
-2165 0 -34 23 c-66 44 -69 61 -69 356 0 248 1 265 21 300 23 41 50 61 92 70
16 3 992 6 2170 6 1945 -1 2145 -2 2172 -17z m-5210 -1638 c1 -806 -2 -1476
-5 -1490 -8 -32 -65 -71 -96 -66 -35 7 -62 24 -76 49 -9 17 -12 366 -13 1487
0 806 1 1470 2 1475 2 7 40 11 96 10 l92 0 0 -1465z m2762 125 c51 -30 73 -81
73 -169 0 -90 -17 -132 -67 -166 l-36 -25 -916 -1 c-938 0 -978 1 -1014 38
-32 32 -47 78 -47 147 0 112 37 175 112 190 16 3 442 6 946 6 876 -1 919 -2
949 -20z m2432 11 c38 -13 78 -57 89 -97 5 -19 8 -65 6 -102 -4 -95 -33 -143
-99 -164 -18 -5 -397 -9 -950 -8 -903 0 -921 1 -955 20 -53 31 -76 85 -74 176
3 113 38 165 121 178 56 9 1835 6 1862 -3z m-2428 -1149 c55 -36 70 -78 67
-177 -2 -69 -7 -91 -25 -116 -47 -65 8 -62 -1014 -62 -865 0 -930 1 -961 18
-57 30 -71 60 -76 157 -4 102 11 143 67 180 l34 23 937 0 937 0 34 -23z m2447
4 c58 -30 76 -70 76 -171 0 -99 -16 -136 -73 -168 -35 -20 -54 -20 -965 -20
-1029 0 -970 -4 -1015 66 -21 31 -24 48 -24 124 0 76 3 92 24 123 47 68 -14
65 1012 65 893 0 929 -1 965 -19z"/>
</g>
</svg>
