<svg width="128" height="128" viewBox="0 0 128 128" fill="none" xmlns="http://www.w3.org/2000/svg">
<path d="M96 85.7601C91.9467 85.7601 88.32 87.3601 85.5467 89.8668L47.52 67.7334C47.7867 66.5067 48 65.2801 48 64.0001C48 62.7201 47.7867 61.4934 47.52 60.2668L85.12 38.3467C88 41.0134 91.7867 42.6667 96 42.6667C104.853 42.6667 112 35.5201 112 26.6667C112 17.8134 104.853 10.6667 96 10.6667C87.1467 10.6667 80 17.8134 80 26.6667C80 27.9467 80.2133 29.1734 80.48 30.4001L42.88 52.3201C40 49.6534 36.2133 48.0001 32 48.0001C23.1467 48.0001 16 55.1467 16 64.0001C16 72.8534 23.1467 80.0001 32 80.0001C36.2133 80.0001 40 78.3467 42.88 75.6801L80.8533 97.8668C80.5867 98.9868 80.4267 100.16 80.4267 101.333C80.4267 109.92 87.4133 116.907 96 116.907C104.587 116.907 111.573 109.92 111.573 101.333C111.573 92.7468 104.587 85.7601 96 85.7601Z" fill="black"/>
</svg>
